G75*
%MOIN*%
%OFA0B0*%
%FSLAX25Y25*%
%IPPOS*%
%LPD*%
%AMOC8*
5,1,8,0,0,1.08239X$1,22.5*
%
%ADD10R,0.03937X0.04331*%
%ADD11R,0.04331X0.03937*%
%ADD12C,0.01181*%
%ADD13R,0.04724X0.07874*%
%ADD14R,0.02362X0.05315*%
%ADD15R,0.02362X0.04724*%
%ADD16R,0.05906X0.06299*%
D10*
X0058750Y0050404D03*
X0058750Y0057096D03*
X0058750Y0067904D03*
X0058750Y0074596D03*
X0078750Y0042096D03*
X0078750Y0035404D03*
X0108750Y0035404D03*
X0108750Y0042096D03*
X0112750Y0075404D03*
X0118750Y0075404D03*
X0118750Y0082096D03*
X0112750Y0082096D03*
X0108750Y0137404D03*
X0108750Y0144096D03*
X0078750Y0144096D03*
X0078750Y0137404D03*
X0058750Y0152404D03*
X0058750Y0159096D03*
X0058750Y0169904D03*
X0058750Y0176596D03*
X0112750Y0177404D03*
X0112750Y0184096D03*
X0118750Y0184096D03*
X0118750Y0177404D03*
X0108750Y0239404D03*
X0108750Y0246096D03*
X0078750Y0246096D03*
X0078750Y0239404D03*
X0058750Y0254404D03*
X0058750Y0261096D03*
X0058750Y0271904D03*
X0058750Y0278596D03*
X0112750Y0279404D03*
X0118750Y0279404D03*
X0118750Y0286096D03*
X0112750Y0286096D03*
X0210750Y0278596D03*
X0210750Y0271904D03*
X0210750Y0261096D03*
X0210750Y0254404D03*
X0230750Y0246096D03*
X0230750Y0239404D03*
X0260750Y0239404D03*
X0260750Y0246096D03*
X0264750Y0279404D03*
X0270750Y0279404D03*
X0270750Y0286096D03*
X0264750Y0286096D03*
X0264750Y0184096D03*
X0270750Y0184096D03*
X0270750Y0177404D03*
X0264750Y0177404D03*
X0260750Y0144096D03*
X0260750Y0137404D03*
X0230750Y0137404D03*
X0230750Y0144096D03*
X0210750Y0152404D03*
X0210750Y0159096D03*
X0210750Y0169904D03*
X0210750Y0176596D03*
X0264750Y0082096D03*
X0270750Y0082096D03*
X0270750Y0075404D03*
X0264750Y0075404D03*
X0260750Y0042096D03*
X0260750Y0035404D03*
X0230750Y0035404D03*
X0230750Y0042096D03*
X0210750Y0050404D03*
X0210750Y0057096D03*
X0210750Y0067904D03*
X0210750Y0074596D03*
D11*
X0157096Y0118750D03*
X0150404Y0118750D03*
X0150404Y0220750D03*
X0157096Y0220750D03*
X0157096Y0322750D03*
X0150404Y0322750D03*
X0302404Y0322750D03*
X0309096Y0322750D03*
X0309096Y0220750D03*
X0302404Y0220750D03*
X0302404Y0118750D03*
X0309096Y0118750D03*
D12*
X0310581Y0115128D02*
X0310581Y0112372D01*
X0307825Y0112372D01*
X0307825Y0115128D01*
X0310581Y0115128D01*
X0310581Y0113494D02*
X0307825Y0113494D01*
X0307825Y0114616D02*
X0310581Y0114616D01*
X0303675Y0115128D02*
X0303675Y0112372D01*
X0300919Y0112372D01*
X0300919Y0115128D01*
X0303675Y0115128D01*
X0303675Y0113494D02*
X0300919Y0113494D01*
X0300919Y0114616D02*
X0303675Y0114616D01*
X0303675Y0214372D02*
X0303675Y0217128D01*
X0303675Y0214372D02*
X0300919Y0214372D01*
X0300919Y0217128D01*
X0303675Y0217128D01*
X0303675Y0215494D02*
X0300919Y0215494D01*
X0300919Y0216616D02*
X0303675Y0216616D01*
X0310581Y0217128D02*
X0310581Y0214372D01*
X0307825Y0214372D01*
X0307825Y0217128D01*
X0310581Y0217128D01*
X0310581Y0215494D02*
X0307825Y0215494D01*
X0307825Y0216616D02*
X0310581Y0216616D01*
X0310581Y0316372D02*
X0310581Y0319128D01*
X0310581Y0316372D02*
X0307825Y0316372D01*
X0307825Y0319128D01*
X0310581Y0319128D01*
X0310581Y0317494D02*
X0307825Y0317494D01*
X0307825Y0318616D02*
X0310581Y0318616D01*
X0303675Y0319128D02*
X0303675Y0316372D01*
X0300919Y0316372D01*
X0300919Y0319128D01*
X0303675Y0319128D01*
X0303675Y0317494D02*
X0300919Y0317494D01*
X0300919Y0318616D02*
X0303675Y0318616D01*
X0158581Y0319128D02*
X0158581Y0316372D01*
X0155825Y0316372D01*
X0155825Y0319128D01*
X0158581Y0319128D01*
X0158581Y0317494D02*
X0155825Y0317494D01*
X0155825Y0318616D02*
X0158581Y0318616D01*
X0151675Y0319128D02*
X0151675Y0316372D01*
X0148919Y0316372D01*
X0148919Y0319128D01*
X0151675Y0319128D01*
X0151675Y0317494D02*
X0148919Y0317494D01*
X0148919Y0318616D02*
X0151675Y0318616D01*
X0151675Y0217128D02*
X0151675Y0214372D01*
X0148919Y0214372D01*
X0148919Y0217128D01*
X0151675Y0217128D01*
X0151675Y0215494D02*
X0148919Y0215494D01*
X0148919Y0216616D02*
X0151675Y0216616D01*
X0158581Y0217128D02*
X0158581Y0214372D01*
X0155825Y0214372D01*
X0155825Y0217128D01*
X0158581Y0217128D01*
X0158581Y0215494D02*
X0155825Y0215494D01*
X0155825Y0216616D02*
X0158581Y0216616D01*
X0158581Y0115128D02*
X0158581Y0112372D01*
X0155825Y0112372D01*
X0155825Y0115128D01*
X0158581Y0115128D01*
X0158581Y0113494D02*
X0155825Y0113494D01*
X0155825Y0114616D02*
X0158581Y0114616D01*
X0151675Y0115128D02*
X0151675Y0112372D01*
X0148919Y0112372D01*
X0148919Y0115128D01*
X0151675Y0115128D01*
X0151675Y0113494D02*
X0148919Y0113494D01*
X0148919Y0114616D02*
X0151675Y0114616D01*
D13*
X0138593Y0121959D03*
X0139774Y0136281D03*
X0117726Y0136281D03*
X0116545Y0121959D03*
X0117726Y0034281D03*
X0139774Y0034281D03*
X0268545Y0121959D03*
X0269726Y0136281D03*
X0290593Y0121959D03*
X0291774Y0136281D03*
X0290593Y0223959D03*
X0291774Y0238281D03*
X0269726Y0238281D03*
X0268545Y0223959D03*
X0268545Y0325959D03*
X0290593Y0325959D03*
X0139774Y0238281D03*
X0138593Y0223959D03*
X0117726Y0238281D03*
X0116545Y0223959D03*
X0116545Y0325959D03*
X0138593Y0325959D03*
X0269726Y0034281D03*
X0291774Y0034281D03*
D14*
X0286656Y0048750D03*
X0282719Y0048750D03*
X0278781Y0048750D03*
X0274844Y0048750D03*
X0273663Y0107490D03*
X0277600Y0107490D03*
X0281537Y0107490D03*
X0285474Y0107490D03*
X0286656Y0150750D03*
X0282719Y0150750D03*
X0278781Y0150750D03*
X0274844Y0150750D03*
X0273663Y0209490D03*
X0277600Y0209490D03*
X0281537Y0209490D03*
X0285474Y0209490D03*
X0286656Y0252750D03*
X0282719Y0252750D03*
X0278781Y0252750D03*
X0274844Y0252750D03*
X0273663Y0311490D03*
X0277600Y0311490D03*
X0281537Y0311490D03*
X0285474Y0311490D03*
X0134656Y0252750D03*
X0130719Y0252750D03*
X0126781Y0252750D03*
X0122844Y0252750D03*
X0121663Y0209490D03*
X0125600Y0209490D03*
X0129537Y0209490D03*
X0133474Y0209490D03*
X0134656Y0150750D03*
X0130719Y0150750D03*
X0126781Y0150750D03*
X0122844Y0150750D03*
X0121663Y0107490D03*
X0125600Y0107490D03*
X0129537Y0107490D03*
X0133474Y0107490D03*
X0134656Y0048750D03*
X0130719Y0048750D03*
X0126781Y0048750D03*
X0122844Y0048750D03*
X0121663Y0311490D03*
X0125600Y0311490D03*
X0129537Y0311490D03*
X0133474Y0311490D03*
D15*
X0106250Y0293774D03*
X0101250Y0293774D03*
X0096250Y0293774D03*
X0091250Y0293774D03*
X0091250Y0271726D03*
X0096250Y0271726D03*
X0101250Y0271726D03*
X0106250Y0271726D03*
X0106250Y0191774D03*
X0101250Y0191774D03*
X0096250Y0191774D03*
X0091250Y0191774D03*
X0091250Y0169726D03*
X0096250Y0169726D03*
X0101250Y0169726D03*
X0106250Y0169726D03*
X0106250Y0089774D03*
X0101250Y0089774D03*
X0096250Y0089774D03*
X0091250Y0089774D03*
X0091250Y0067726D03*
X0096250Y0067726D03*
X0101250Y0067726D03*
X0106250Y0067726D03*
X0243250Y0067726D03*
X0248250Y0067726D03*
X0253250Y0067726D03*
X0258250Y0067726D03*
X0258250Y0089774D03*
X0253250Y0089774D03*
X0248250Y0089774D03*
X0243250Y0089774D03*
X0243250Y0169726D03*
X0248250Y0169726D03*
X0253250Y0169726D03*
X0258250Y0169726D03*
X0258250Y0191774D03*
X0253250Y0191774D03*
X0248250Y0191774D03*
X0243250Y0191774D03*
X0243250Y0271726D03*
X0248250Y0271726D03*
X0253250Y0271726D03*
X0258250Y0271726D03*
X0258250Y0293774D03*
X0253250Y0293774D03*
X0248250Y0293774D03*
X0243250Y0293774D03*
D16*
X0056663Y0038750D03*
X0070837Y0038750D03*
X0070837Y0140750D03*
X0056663Y0140750D03*
X0056663Y0242750D03*
X0070837Y0242750D03*
X0208663Y0242750D03*
X0222837Y0242750D03*
X0222837Y0140750D03*
X0208663Y0140750D03*
X0208663Y0038750D03*
X0222837Y0038750D03*
M02*
