%
M48
M72
T01C0.0150
T02C0.0400
T03C0.0906
T04C0.1300
%
T01
X7875Y5375
X9125Y5625
X9875Y4875
X9375Y4575
X10625Y5275
X11375Y4875
X12175Y5475
X12375Y7875
X13325Y10225
X12295Y11375
X12875Y11875
X10375Y10375
X9625Y8375
X8125Y8125
X6875Y8575
X9375Y14775
X9875Y15075
X10625Y15475
X11375Y15075
X12175Y15675
X12375Y18075
X13325Y20425
X12295Y21575
X12875Y22075
X10375Y20575
X9625Y18575
X8125Y18325
X6875Y18775
X9125Y15825
X7875Y15575
X9375Y24975
X9875Y25275
X10625Y25675
X11375Y25275
X12175Y25875
X12375Y28275
X13325Y30625
X12295Y31775
X12875Y32275
X10375Y30775
X9625Y28775
X8125Y28525
X6875Y28975
X7875Y25775
X9125Y26025
X22075Y28975
X23325Y28525
X24825Y28775
X25575Y30775
X27495Y31775
X28075Y32275
X28525Y30625
X27575Y28275
X27375Y25875
X26575Y25275
X25825Y25675
X25075Y25275
X24575Y24975
X24325Y26025
X23075Y25775
X27495Y21575
X28075Y22075
X28525Y20425
X27575Y18075
X27375Y15675
X26575Y15075
X25825Y15475
X25075Y15075
X24575Y14775
X24325Y15825
X23075Y15575
X23325Y18325
X22075Y18775
X24825Y18575
X25575Y20575
X28075Y11875
X27495Y11375
X28525Y10225
X27575Y7875
X27375Y5475
X26575Y4875
X25825Y5275
X25075Y4875
X24575Y4575
X24325Y5625
X23075Y5375
X23325Y8125
X22075Y8575
X24825Y8375
X25575Y10375
T02
X18575Y8875
X17375Y8875
X17375Y9875
X17375Y7875
X17375Y6875
X18575Y6875
X18575Y7875
X17375Y5875
X17375Y16075
X17375Y17075
X18575Y17075
X18575Y18075
X18575Y19075
X17375Y19075
X17375Y18075
X17375Y20075
X17375Y26275
X17375Y27275
X18575Y27275
X18575Y28275
X18575Y29275
X17375Y29275
X17375Y28275
X17375Y30275
X3375Y29275
X3375Y28275
X3375Y27275
X3375Y19075
X3375Y18075
X3375Y17075
X3375Y8875
X3375Y7875
X3375Y6875
X32575Y6875
X32575Y7875
X32575Y8875
X32575Y9875
X32575Y5875
X32575Y16075
X32575Y17075
X32575Y18075
X32575Y19075
X32575Y20075
X32575Y26275
X32575Y27275
X32575Y28275
X32575Y29275
X32575Y30275
T03
X21575Y24275
X21575Y14075
X21575Y3875
X6375Y3875
X6375Y14075
X6375Y24275
T04
X3875Y3875
X3875Y11875
X3875Y14075
X3875Y22075
X3875Y24275
X3875Y32275
X16875Y32275
X19075Y32275
X19075Y24275
X19075Y22075
X16875Y22075
X16875Y24275
X16875Y14075
X19075Y14075
X19075Y11875
X16875Y11875
X16875Y3875
X19075Y3875
X32075Y3875
X32075Y11875
X32075Y14075
X32075Y22075
X32075Y24275
X32075Y32275
M30
