G75*
%MOIN*%
%OFA0B0*%
%FSLAX25Y25*%
%IPPOS*%
%LPD*%
%AMOC8*
5,1,8,0,0,1.08239X$1,22.5*
%
%ADD10R,0.04737X0.05131*%
%ADD11R,0.03300X0.05800*%
%ADD12C,0.00500*%
%ADD13R,0.05131X0.04737*%
%ADD14C,0.01990*%
%ADD15R,0.05524X0.08674*%
%ADD16R,0.03162X0.06115*%
%ADD17C,0.08200*%
%ADD18R,0.03162X0.05524*%
%ADD19C,0.13800*%
%ADD20R,0.06706X0.07099*%
%ADD21C,0.09855*%
%ADD22C,0.04737*%
%ADD23C,0.05000*%
%ADD24C,0.06706*%
D10*
X0058750Y0050404D03*
X0058750Y0057096D03*
X0058750Y0067904D03*
X0058750Y0074596D03*
X0078750Y0042096D03*
X0078750Y0035404D03*
X0108750Y0035404D03*
X0108750Y0042096D03*
X0112750Y0075404D03*
X0118750Y0075404D03*
X0118750Y0082096D03*
X0112750Y0082096D03*
X0108750Y0137404D03*
X0108750Y0144096D03*
X0078750Y0144096D03*
X0078750Y0137404D03*
X0058750Y0152404D03*
X0058750Y0159096D03*
X0058750Y0169904D03*
X0058750Y0176596D03*
X0112750Y0177404D03*
X0112750Y0184096D03*
X0118750Y0184096D03*
X0118750Y0177404D03*
X0108750Y0239404D03*
X0108750Y0246096D03*
X0078750Y0246096D03*
X0078750Y0239404D03*
X0058750Y0254404D03*
X0058750Y0261096D03*
X0058750Y0271904D03*
X0058750Y0278596D03*
X0112750Y0279404D03*
X0118750Y0279404D03*
X0118750Y0286096D03*
X0112750Y0286096D03*
X0210750Y0278596D03*
X0210750Y0271904D03*
X0210750Y0261096D03*
X0210750Y0254404D03*
X0230750Y0246096D03*
X0230750Y0239404D03*
X0260750Y0239404D03*
X0260750Y0246096D03*
X0264750Y0279404D03*
X0270750Y0279404D03*
X0270750Y0286096D03*
X0264750Y0286096D03*
X0264750Y0184096D03*
X0270750Y0184096D03*
X0270750Y0177404D03*
X0264750Y0177404D03*
X0260750Y0144096D03*
X0260750Y0137404D03*
X0230750Y0137404D03*
X0230750Y0144096D03*
X0210750Y0152404D03*
X0210750Y0159096D03*
X0210750Y0169904D03*
X0210750Y0176596D03*
X0264750Y0082096D03*
X0270750Y0082096D03*
X0270750Y0075404D03*
X0264750Y0075404D03*
X0260750Y0042096D03*
X0260750Y0035404D03*
X0230750Y0035404D03*
X0230750Y0042096D03*
X0210750Y0050404D03*
X0210750Y0057096D03*
X0210750Y0067904D03*
X0210750Y0074596D03*
D11*
X0218750Y0071250D03*
X0222750Y0071250D03*
X0222750Y0053750D03*
X0218750Y0053750D03*
X0241750Y0038750D03*
X0245750Y0038750D03*
X0249750Y0038750D03*
X0249750Y0140750D03*
X0245750Y0140750D03*
X0241750Y0140750D03*
X0222750Y0155750D03*
X0218750Y0155750D03*
X0218750Y0173250D03*
X0222750Y0173250D03*
X0241750Y0242750D03*
X0245750Y0242750D03*
X0249750Y0242750D03*
X0222750Y0257750D03*
X0218750Y0257750D03*
X0218750Y0275250D03*
X0222750Y0275250D03*
X0097750Y0242750D03*
X0093750Y0242750D03*
X0089750Y0242750D03*
X0070750Y0257750D03*
X0066750Y0257750D03*
X0066750Y0275250D03*
X0070750Y0275250D03*
X0070750Y0173250D03*
X0066750Y0173250D03*
X0066750Y0155750D03*
X0070750Y0155750D03*
X0089750Y0140750D03*
X0093750Y0140750D03*
X0097750Y0140750D03*
X0070750Y0071250D03*
X0066750Y0071250D03*
X0066750Y0053750D03*
X0070750Y0053750D03*
X0089750Y0038750D03*
X0093750Y0038750D03*
X0097750Y0038750D03*
D12*
X0096500Y0038720D02*
X0091000Y0038720D01*
X0091000Y0038250D02*
X0091000Y0039250D01*
X0096500Y0039250D01*
X0096500Y0038250D01*
X0091000Y0038250D01*
X0091000Y0039219D02*
X0096500Y0039219D01*
X0069500Y0053250D02*
X0068000Y0053250D01*
X0068000Y0054250D01*
X0069500Y0054250D01*
X0069500Y0053250D01*
X0069500Y0053676D02*
X0068000Y0053676D01*
X0068000Y0054174D02*
X0069500Y0054174D01*
X0069500Y0070750D02*
X0068000Y0070750D01*
X0068000Y0071750D01*
X0069500Y0071750D01*
X0069500Y0070750D01*
X0069500Y0071123D02*
X0068000Y0071123D01*
X0068000Y0071622D02*
X0069500Y0071622D01*
X0091000Y0140250D02*
X0091000Y0141250D01*
X0096500Y0141250D01*
X0096500Y0140250D01*
X0091000Y0140250D01*
X0091000Y0140417D02*
X0096500Y0140417D01*
X0096500Y0140915D02*
X0091000Y0140915D01*
X0069500Y0155250D02*
X0068000Y0155250D01*
X0068000Y0156250D01*
X0069500Y0156250D01*
X0069500Y0155250D01*
X0069500Y0155372D02*
X0068000Y0155372D01*
X0068000Y0155870D02*
X0069500Y0155870D01*
X0069500Y0172750D02*
X0068000Y0172750D01*
X0068000Y0173750D01*
X0069500Y0173750D01*
X0069500Y0172750D01*
X0069500Y0172820D02*
X0068000Y0172820D01*
X0068000Y0173318D02*
X0069500Y0173318D01*
X0091000Y0242250D02*
X0091000Y0243250D01*
X0096500Y0243250D01*
X0096500Y0242250D01*
X0091000Y0242250D01*
X0091000Y0242611D02*
X0096500Y0242611D01*
X0096500Y0243110D02*
X0091000Y0243110D01*
X0069500Y0257250D02*
X0068000Y0257250D01*
X0068000Y0258250D01*
X0069500Y0258250D01*
X0069500Y0257250D01*
X0069500Y0257567D02*
X0068000Y0257567D01*
X0068000Y0258065D02*
X0069500Y0258065D01*
X0069500Y0274750D02*
X0068000Y0274750D01*
X0068000Y0275750D01*
X0069500Y0275750D01*
X0069500Y0274750D01*
X0069500Y0275015D02*
X0068000Y0275015D01*
X0068000Y0275513D02*
X0069500Y0275513D01*
X0220000Y0275513D02*
X0221500Y0275513D01*
X0221500Y0275750D02*
X0221500Y0274750D01*
X0220000Y0274750D01*
X0220000Y0275750D01*
X0221500Y0275750D01*
X0221500Y0275015D02*
X0220000Y0275015D01*
X0220000Y0258250D02*
X0220000Y0257250D01*
X0221500Y0257250D01*
X0221500Y0258250D01*
X0220000Y0258250D01*
X0220000Y0258065D02*
X0221500Y0258065D01*
X0221500Y0257567D02*
X0220000Y0257567D01*
X0243000Y0243250D02*
X0243000Y0242250D01*
X0248500Y0242250D01*
X0248500Y0243250D01*
X0243000Y0243250D01*
X0243000Y0243110D02*
X0248500Y0243110D01*
X0248500Y0242611D02*
X0243000Y0242611D01*
X0221500Y0173750D02*
X0220000Y0173750D01*
X0220000Y0172750D01*
X0221500Y0172750D01*
X0221500Y0173750D01*
X0221500Y0173318D02*
X0220000Y0173318D01*
X0220000Y0172820D02*
X0221500Y0172820D01*
X0221500Y0156250D02*
X0220000Y0156250D01*
X0220000Y0155250D01*
X0221500Y0155250D01*
X0221500Y0156250D01*
X0221500Y0155870D02*
X0220000Y0155870D01*
X0220000Y0155372D02*
X0221500Y0155372D01*
X0243000Y0141250D02*
X0243000Y0140250D01*
X0248500Y0140250D01*
X0248500Y0141250D01*
X0243000Y0141250D01*
X0243000Y0140915D02*
X0248500Y0140915D01*
X0248500Y0140417D02*
X0243000Y0140417D01*
X0221500Y0071750D02*
X0220000Y0071750D01*
X0220000Y0070750D01*
X0221500Y0070750D01*
X0221500Y0071750D01*
X0221500Y0071622D02*
X0220000Y0071622D01*
X0220000Y0071123D02*
X0221500Y0071123D01*
X0221500Y0054250D02*
X0220000Y0054250D01*
X0220000Y0053250D01*
X0221500Y0053250D01*
X0221500Y0054250D01*
X0221500Y0054174D02*
X0220000Y0054174D01*
X0220000Y0053676D02*
X0221500Y0053676D01*
X0243000Y0039250D02*
X0243000Y0038250D01*
X0248500Y0038250D01*
X0248500Y0039250D01*
X0243000Y0039250D01*
X0243000Y0039219D02*
X0248500Y0039219D01*
X0248500Y0038720D02*
X0243000Y0038720D01*
D13*
X0302404Y0118750D03*
X0309096Y0118750D03*
X0309096Y0220750D03*
X0302404Y0220750D03*
X0302404Y0322750D03*
X0309096Y0322750D03*
X0157096Y0322750D03*
X0150404Y0322750D03*
X0150404Y0220750D03*
X0157096Y0220750D03*
X0157096Y0118750D03*
X0150404Y0118750D03*
D14*
X0151670Y0115123D02*
X0151670Y0112377D01*
X0148924Y0112377D01*
X0148924Y0115123D01*
X0151670Y0115123D01*
X0151670Y0114267D02*
X0148924Y0114267D01*
X0158576Y0115123D02*
X0158576Y0112377D01*
X0155830Y0112377D01*
X0155830Y0115123D01*
X0158576Y0115123D01*
X0158576Y0114267D02*
X0155830Y0114267D01*
X0158576Y0214377D02*
X0158576Y0217123D01*
X0158576Y0214377D02*
X0155830Y0214377D01*
X0155830Y0217123D01*
X0158576Y0217123D01*
X0158576Y0216267D02*
X0155830Y0216267D01*
X0151670Y0217123D02*
X0151670Y0214377D01*
X0148924Y0214377D01*
X0148924Y0217123D01*
X0151670Y0217123D01*
X0151670Y0216267D02*
X0148924Y0216267D01*
X0151670Y0316377D02*
X0151670Y0319123D01*
X0151670Y0316377D02*
X0148924Y0316377D01*
X0148924Y0319123D01*
X0151670Y0319123D01*
X0151670Y0318267D02*
X0148924Y0318267D01*
X0158576Y0319123D02*
X0158576Y0316377D01*
X0155830Y0316377D01*
X0155830Y0319123D01*
X0158576Y0319123D01*
X0158576Y0318267D02*
X0155830Y0318267D01*
X0303670Y0319123D02*
X0303670Y0316377D01*
X0300924Y0316377D01*
X0300924Y0319123D01*
X0303670Y0319123D01*
X0303670Y0318267D02*
X0300924Y0318267D01*
X0310576Y0319123D02*
X0310576Y0316377D01*
X0307830Y0316377D01*
X0307830Y0319123D01*
X0310576Y0319123D01*
X0310576Y0318267D02*
X0307830Y0318267D01*
X0310576Y0217123D02*
X0310576Y0214377D01*
X0307830Y0214377D01*
X0307830Y0217123D01*
X0310576Y0217123D01*
X0310576Y0216267D02*
X0307830Y0216267D01*
X0303670Y0217123D02*
X0303670Y0214377D01*
X0300924Y0214377D01*
X0300924Y0217123D01*
X0303670Y0217123D01*
X0303670Y0216267D02*
X0300924Y0216267D01*
X0303670Y0115123D02*
X0303670Y0112377D01*
X0300924Y0112377D01*
X0300924Y0115123D01*
X0303670Y0115123D01*
X0303670Y0114267D02*
X0300924Y0114267D01*
X0310576Y0115123D02*
X0310576Y0112377D01*
X0307830Y0112377D01*
X0307830Y0115123D01*
X0310576Y0115123D01*
X0310576Y0114267D02*
X0307830Y0114267D01*
D15*
X0290593Y0121959D03*
X0291774Y0136281D03*
X0269726Y0136281D03*
X0268545Y0121959D03*
X0269726Y0034281D03*
X0291774Y0034281D03*
X0139774Y0034281D03*
X0117726Y0034281D03*
X0116545Y0121959D03*
X0117726Y0136281D03*
X0138593Y0121959D03*
X0139774Y0136281D03*
X0138593Y0223959D03*
X0139774Y0238281D03*
X0117726Y0238281D03*
X0116545Y0223959D03*
X0116545Y0325959D03*
X0138593Y0325959D03*
X0268545Y0325959D03*
X0290593Y0325959D03*
X0291774Y0238281D03*
X0290593Y0223959D03*
X0269726Y0238281D03*
X0268545Y0223959D03*
D16*
X0273663Y0209490D03*
X0277600Y0209490D03*
X0281537Y0209490D03*
X0285474Y0209490D03*
X0286656Y0252750D03*
X0282719Y0252750D03*
X0278781Y0252750D03*
X0274844Y0252750D03*
X0273663Y0311490D03*
X0277600Y0311490D03*
X0281537Y0311490D03*
X0285474Y0311490D03*
X0134656Y0252750D03*
X0130719Y0252750D03*
X0126781Y0252750D03*
X0122844Y0252750D03*
X0121663Y0209490D03*
X0125600Y0209490D03*
X0129537Y0209490D03*
X0133474Y0209490D03*
X0134656Y0150750D03*
X0130719Y0150750D03*
X0126781Y0150750D03*
X0122844Y0150750D03*
X0121663Y0107490D03*
X0125600Y0107490D03*
X0129537Y0107490D03*
X0133474Y0107490D03*
X0134656Y0048750D03*
X0130719Y0048750D03*
X0126781Y0048750D03*
X0122844Y0048750D03*
X0274844Y0048750D03*
X0278781Y0048750D03*
X0282719Y0048750D03*
X0286656Y0048750D03*
X0285474Y0107490D03*
X0281537Y0107490D03*
X0277600Y0107490D03*
X0273663Y0107490D03*
X0274844Y0150750D03*
X0278781Y0150750D03*
X0282719Y0150750D03*
X0286656Y0150750D03*
X0133474Y0311490D03*
X0129537Y0311490D03*
X0125600Y0311490D03*
X0121663Y0311490D03*
D17*
X0173750Y0302750D03*
X0173750Y0292750D03*
X0173750Y0282750D03*
X0185750Y0282750D03*
X0185750Y0292750D03*
X0185750Y0272750D03*
X0173750Y0272750D03*
X0173750Y0262750D03*
X0173750Y0200750D03*
X0173750Y0190750D03*
X0173750Y0180750D03*
X0185750Y0180750D03*
X0185750Y0190750D03*
X0185750Y0170750D03*
X0173750Y0170750D03*
X0173750Y0160750D03*
X0173750Y0098750D03*
X0173750Y0088750D03*
X0185750Y0088750D03*
X0185750Y0078750D03*
X0185750Y0068750D03*
X0173750Y0068750D03*
X0173750Y0078750D03*
X0173750Y0058750D03*
X0033750Y0068750D03*
X0033750Y0078750D03*
X0033750Y0088750D03*
X0033750Y0170750D03*
X0033750Y0180750D03*
X0033750Y0190750D03*
X0033750Y0272750D03*
X0033750Y0282750D03*
X0033750Y0292750D03*
X0325750Y0292750D03*
X0325750Y0282750D03*
X0325750Y0272750D03*
X0325750Y0262750D03*
X0325750Y0302750D03*
X0325750Y0200750D03*
X0325750Y0190750D03*
X0325750Y0180750D03*
X0325750Y0170750D03*
X0325750Y0160750D03*
X0325750Y0098750D03*
X0325750Y0088750D03*
X0325750Y0078750D03*
X0325750Y0068750D03*
X0325750Y0058750D03*
D18*
X0258250Y0067726D03*
X0253250Y0067726D03*
X0248250Y0067726D03*
X0243250Y0067726D03*
X0243250Y0089774D03*
X0248250Y0089774D03*
X0253250Y0089774D03*
X0258250Y0089774D03*
X0258250Y0169726D03*
X0253250Y0169726D03*
X0248250Y0169726D03*
X0243250Y0169726D03*
X0243250Y0191774D03*
X0248250Y0191774D03*
X0253250Y0191774D03*
X0258250Y0191774D03*
X0258250Y0271726D03*
X0253250Y0271726D03*
X0248250Y0271726D03*
X0243250Y0271726D03*
X0243250Y0293774D03*
X0248250Y0293774D03*
X0253250Y0293774D03*
X0258250Y0293774D03*
X0106250Y0293774D03*
X0101250Y0293774D03*
X0096250Y0293774D03*
X0091250Y0293774D03*
X0091250Y0271726D03*
X0096250Y0271726D03*
X0101250Y0271726D03*
X0106250Y0271726D03*
X0106250Y0191774D03*
X0101250Y0191774D03*
X0096250Y0191774D03*
X0091250Y0191774D03*
X0091250Y0169726D03*
X0096250Y0169726D03*
X0101250Y0169726D03*
X0106250Y0169726D03*
X0106250Y0089774D03*
X0101250Y0089774D03*
X0096250Y0089774D03*
X0091250Y0089774D03*
X0091250Y0067726D03*
X0096250Y0067726D03*
X0101250Y0067726D03*
X0106250Y0067726D03*
D19*
X0038750Y0038750D03*
X0038750Y0118750D03*
X0038750Y0140750D03*
X0038750Y0220750D03*
X0038750Y0242750D03*
X0038750Y0322750D03*
X0168750Y0322750D03*
X0190750Y0322750D03*
X0190750Y0242750D03*
X0190750Y0220750D03*
X0168750Y0220750D03*
X0168750Y0242750D03*
X0168750Y0140750D03*
X0190750Y0140750D03*
X0190750Y0118750D03*
X0168750Y0118750D03*
X0168750Y0038750D03*
X0190750Y0038750D03*
X0320750Y0038750D03*
X0320750Y0118750D03*
X0320750Y0140750D03*
X0320750Y0220750D03*
X0320750Y0242750D03*
X0320750Y0322750D03*
D20*
X0222837Y0242750D03*
X0208663Y0242750D03*
X0208663Y0140750D03*
X0222837Y0140750D03*
X0222837Y0038750D03*
X0208663Y0038750D03*
X0070837Y0038750D03*
X0056663Y0038750D03*
X0056663Y0140750D03*
X0070837Y0140750D03*
X0070837Y0242750D03*
X0056663Y0242750D03*
D21*
X0063750Y0242750D03*
X0063750Y0140750D03*
X0063750Y0038750D03*
X0215750Y0038750D03*
X0215750Y0140750D03*
X0215750Y0242750D03*
D22*
X0303750Y0341000D03*
X0055750Y0341000D03*
D23*
X0052185Y0020500D02*
X0052187Y0020619D01*
X0052193Y0020738D01*
X0052203Y0020857D01*
X0052217Y0020975D01*
X0052235Y0021093D01*
X0052256Y0021210D01*
X0052282Y0021326D01*
X0052312Y0021442D01*
X0052345Y0021556D01*
X0052382Y0021669D01*
X0052423Y0021781D01*
X0052468Y0021892D01*
X0052516Y0022001D01*
X0052568Y0022108D01*
X0052624Y0022213D01*
X0052683Y0022317D01*
X0052745Y0022418D01*
X0052811Y0022518D01*
X0052880Y0022615D01*
X0052952Y0022709D01*
X0053028Y0022802D01*
X0053106Y0022891D01*
X0053187Y0022978D01*
X0053272Y0023063D01*
X0053359Y0023144D01*
X0053448Y0023222D01*
X0053541Y0023298D01*
X0053635Y0023370D01*
X0053732Y0023439D01*
X0053832Y0023505D01*
X0053933Y0023567D01*
X0054037Y0023626D01*
X0054142Y0023682D01*
X0054249Y0023734D01*
X0054358Y0023782D01*
X0054469Y0023827D01*
X0054581Y0023868D01*
X0054694Y0023905D01*
X0054808Y0023938D01*
X0054924Y0023968D01*
X0055040Y0023994D01*
X0055157Y0024015D01*
X0055275Y0024033D01*
X0055393Y0024047D01*
X0055512Y0024057D01*
X0055631Y0024063D01*
X0055750Y0024065D01*
X0055869Y0024063D01*
X0055988Y0024057D01*
X0056107Y0024047D01*
X0056225Y0024033D01*
X0056343Y0024015D01*
X0056460Y0023994D01*
X0056576Y0023968D01*
X0056692Y0023938D01*
X0056806Y0023905D01*
X0056919Y0023868D01*
X0057031Y0023827D01*
X0057142Y0023782D01*
X0057251Y0023734D01*
X0057358Y0023682D01*
X0057463Y0023626D01*
X0057567Y0023567D01*
X0057668Y0023505D01*
X0057768Y0023439D01*
X0057865Y0023370D01*
X0057959Y0023298D01*
X0058052Y0023222D01*
X0058141Y0023144D01*
X0058228Y0023063D01*
X0058313Y0022978D01*
X0058394Y0022891D01*
X0058472Y0022802D01*
X0058548Y0022709D01*
X0058620Y0022615D01*
X0058689Y0022518D01*
X0058755Y0022418D01*
X0058817Y0022317D01*
X0058876Y0022213D01*
X0058932Y0022108D01*
X0058984Y0022001D01*
X0059032Y0021892D01*
X0059077Y0021781D01*
X0059118Y0021669D01*
X0059155Y0021556D01*
X0059188Y0021442D01*
X0059218Y0021326D01*
X0059244Y0021210D01*
X0059265Y0021093D01*
X0059283Y0020975D01*
X0059297Y0020857D01*
X0059307Y0020738D01*
X0059313Y0020619D01*
X0059315Y0020500D01*
X0059313Y0020381D01*
X0059307Y0020262D01*
X0059297Y0020143D01*
X0059283Y0020025D01*
X0059265Y0019907D01*
X0059244Y0019790D01*
X0059218Y0019674D01*
X0059188Y0019558D01*
X0059155Y0019444D01*
X0059118Y0019331D01*
X0059077Y0019219D01*
X0059032Y0019108D01*
X0058984Y0018999D01*
X0058932Y0018892D01*
X0058876Y0018787D01*
X0058817Y0018683D01*
X0058755Y0018582D01*
X0058689Y0018482D01*
X0058620Y0018385D01*
X0058548Y0018291D01*
X0058472Y0018198D01*
X0058394Y0018109D01*
X0058313Y0018022D01*
X0058228Y0017937D01*
X0058141Y0017856D01*
X0058052Y0017778D01*
X0057959Y0017702D01*
X0057865Y0017630D01*
X0057768Y0017561D01*
X0057668Y0017495D01*
X0057567Y0017433D01*
X0057463Y0017374D01*
X0057358Y0017318D01*
X0057251Y0017266D01*
X0057142Y0017218D01*
X0057031Y0017173D01*
X0056919Y0017132D01*
X0056806Y0017095D01*
X0056692Y0017062D01*
X0056576Y0017032D01*
X0056460Y0017006D01*
X0056343Y0016985D01*
X0056225Y0016967D01*
X0056107Y0016953D01*
X0055988Y0016943D01*
X0055869Y0016937D01*
X0055750Y0016935D01*
X0055631Y0016937D01*
X0055512Y0016943D01*
X0055393Y0016953D01*
X0055275Y0016967D01*
X0055157Y0016985D01*
X0055040Y0017006D01*
X0054924Y0017032D01*
X0054808Y0017062D01*
X0054694Y0017095D01*
X0054581Y0017132D01*
X0054469Y0017173D01*
X0054358Y0017218D01*
X0054249Y0017266D01*
X0054142Y0017318D01*
X0054037Y0017374D01*
X0053933Y0017433D01*
X0053832Y0017495D01*
X0053732Y0017561D01*
X0053635Y0017630D01*
X0053541Y0017702D01*
X0053448Y0017778D01*
X0053359Y0017856D01*
X0053272Y0017937D01*
X0053187Y0018022D01*
X0053106Y0018109D01*
X0053028Y0018198D01*
X0052952Y0018291D01*
X0052880Y0018385D01*
X0052811Y0018482D01*
X0052745Y0018582D01*
X0052683Y0018683D01*
X0052624Y0018787D01*
X0052568Y0018892D01*
X0052516Y0018999D01*
X0052468Y0019108D01*
X0052423Y0019219D01*
X0052382Y0019331D01*
X0052345Y0019444D01*
X0052312Y0019558D01*
X0052282Y0019674D01*
X0052256Y0019790D01*
X0052235Y0019907D01*
X0052217Y0020025D01*
X0052203Y0020143D01*
X0052193Y0020262D01*
X0052187Y0020381D01*
X0052185Y0020500D01*
D24*
X0055750Y0020500D03*
M02*
